<?xml version="1.0" encoding="utf-8"?>
<!-- Generator: Adobe Illustrator 24.0.1, SVG Export Plug-In . SVG Version: 6.00 Build 0)  -->
<svg version="1.1" id="Слой_1" xmlns="http://www.w3.org/2000/svg" xmlns:xlink="http://www.w3.org/1999/xlink" x="0px" y="0px"
	 viewBox="0 0 85 33" style="enable-background:new 0 0 85 33;" xml:space="preserve">
<style type="text/css">
	.st0{fill:#343A40;}
	.st1{fill:#457677;}
	.st2{fill:#CE0000;}
	.st3{enable-background:new    ;}
	.st4{fill:#FFFFFF;}
</style>
<title>logo-w_uk</title>
<g id="Слой_2_1_">
	<g id="Слой_1-2">
		<path class="st0" d="M16.5,24.8c-7.2,0-13.7-4.5-16.2-11.2c-0.2,1-0.3,2-0.3,2.9C0,25.6,7.4,33,16.5,33S33,25.6,33,16.5
			c0-1-0.1-2-0.3-2.9C30.2,20.3,23.7,24.8,16.5,24.8z"/>
		<path class="st1" d="M6.8,21c0-9.6,7.9-17.3,17.4-17.3c1,0,2,0.1,3,0.3C20.3-1.9,9.9-1.1,4,5.9s-5.1,17.4,1.9,23.3
			c1.4,1.2,3.1,2.2,4.8,2.9C8.1,28.9,6.8,25,6.8,21z"/>
		<path class="st2" d="M32.9,18.1L32.9,18.1z"/>
		<path class="st2" d="M32.5,20.4L32.5,20.4z"/>
		<path class="st2" d="M33,17.2L33,17.2z"/>
		<path class="st2" d="M33,17.5L33,17.5z"/>
		<path class="st2" d="M26.3,21c0,0.2,0,0.5,0,0.8c3-2,5.2-4.9,6.5-8.2c-1.6-9-10.2-14.9-19.2-13.3C10.7,0.8,8,2.1,5.7,4
			c1.1-0.2,2.1-0.3,3.2-0.3C18.5,3.7,26.3,11.5,26.3,21C26.3,21,26.3,21,26.3,21z"/>
		<path class="st2" d="M33,16.9L33,16.9z"/>
		<path class="st2" d="M33,17.8L33,17.8z"/>
		<path class="st2" d="M32.7,19.7L32.7,19.7z"/>
		<path class="st2" d="M32.6,20L32.6,20z"/>
		<path class="st2" d="M32.8,19.4L32.8,19.4z"/>
		<path class="st2" d="M32.8,18.8L32.8,18.8z"/>
		<path class="st2" d="M32.9,18.5L32.9,18.5z"/>
		<path class="st2" d="M32.8,19.1L32.8,19.1z"/>
		<path class="st2" d="M32.8,13.9v0.1V13.9z"/>
		<path class="st2" d="M33,15.6L33,15.6z"/>
		<path class="st2" d="M33,15.4L33,15.4z"/>
		<path class="st2" d="M33,15.2L33,15.2z"/>
		<path class="st2" d="M33,16.2L33,16.2z"/>
		<path class="st2" d="M32.9,15L32.9,15z"/>
		<path class="st2" d="M33,16L33,16z"/>
		<path class="st2" d="M33,15.8L33,15.8z"/>
		<path class="st2" d="M32.9,14.7c0,0,0,0.1,0,0.1S32.9,14.8,32.9,14.7z"/>
		<path class="st2" d="M32.4,21L32.4,21L32.4,21z"/>
		<path class="st2" d="M32.8,13.8c0,0,0,0.1,0,0.1S32.8,13.8,32.8,13.8z"/>
		<path class="st2" d="M32.8,14.1v0.1V14.1z"/>
		<path class="st2" d="M32.9,14.5v0.1V14.5z"/>
		<path class="st2" d="M32.9,14.3L32.9,14.3z"/>
		<path class="st2" d="M32.7,13.6c0,0,0,0.1,0,0.1S32.8,13.6,32.7,13.6z"/>
		<path class="st2" d="M30.4,25.4L30.4,25.4z"/>
		<path class="st2" d="M29.3,26.9L29.3,26.9z"/>
		<path class="st2" d="M28.9,27.4L28.9,27.4z"/>
		<path class="st2" d="M28.1,28.2L28.1,28.2z"/>
		<path class="st2" d="M29.9,26.2L29.9,26.2z"/>
		<path class="st2" d="M25,30.7"/>
		<path class="st2" d="M29.7,26.4L29.7,26.4z"/>
		<path class="st2" d="M32.3,21.2L32.3,21.2z"/>
		<path class="st2" d="M25.5,30.3L25.5,30.3z"/>
		<path class="st2" d="M27.6,28.7L27.6,28.7z"/>
		<path class="st2" d="M28.5,27.8L28.5,27.8z"/>
		<path class="st2" d="M30,25.9L30,25.9z"/>
		<path class="st2" d="M27.2,29.1"/>
		<path class="st2" d="M26,30L26,30z"/>
		<path class="st2" d="M26.5,29.6"/>
		<path class="st2" d="M29.5,26.7L29.5,26.7z"/>
		<path class="st2" d="M32,22.1L32,22.1L32,22.1z"/>
		<path class="st2" d="M31.9,22.4L31.9,22.4z"/>
		<path class="st2" d="M30.2,25.7L30.2,25.7z"/>
		<path class="st2" d="M32.1,21.8L32.1,21.8z"/>
		<path class="st2" d="M32.2,21.5L32.2,21.5L32.2,21.5z"/>
		<path class="st2" d="M31.7,23L31.7,23z"/>
		<path class="st2" d="M31.8,22.7L31.8,22.7z"/>
		<path class="st2" d="M30.9,24.6L30.9,24.6z"/>
		<path class="st2" d="M31.5,23.3L31.5,23.3z"/>
		<path class="st2" d="M30.5,25.2L30.5,25.2z"/>
		<path class="st2" d="M31.1,24.1L31.1,24.1z"/>
		<path class="st2" d="M31.4,23.6L31.4,23.6z"/>
		<path class="st2" d="M31.3,23.8L31.3,23.8z"/>
		<g class="st3">
			<path class="st4" d="M44.2,8.8C43.7,9.2,43,9.5,42,9.5v0.6h-1.2V9.5c-0.9-0.1-1.7-0.3-2.2-0.7c-0.5-0.4-0.8-1-0.8-1.7
				c0-0.7,0.3-1.3,0.8-1.7c0.5-0.4,1.2-0.7,2.2-0.7V4H42v0.6c0.9,0.1,1.7,0.3,2.2,0.7c0.5,0.4,0.8,1,0.8,1.7
				C44.9,7.8,44.7,8.4,44.2,8.8z M40.8,8.5V5.6c-0.6,0.1-1,0.2-1.3,0.4c-0.3,0.2-0.4,0.6-0.4,1C39.1,7.9,39.7,8.4,40.8,8.5z
				 M43.3,8.1c0.3-0.2,0.4-0.6,0.4-1c0-0.9-0.6-1.3-1.7-1.4v2.9C42.6,8.5,43,8.3,43.3,8.1z"/>
			<path class="st4" d="M46.6,9.7c-0.4-0.2-0.6-0.5-0.8-0.8c-0.2-0.3-0.3-0.7-0.3-1.1s0.1-0.8,0.3-1.1C46,6.2,46.2,6,46.6,5.8
				c0.4-0.2,0.8-0.3,1.2-0.3s0.9,0.1,1.2,0.3s0.6,0.5,0.8,0.8c0.2,0.3,0.3,0.7,0.3,1.1s-0.1,0.8-0.3,1.1c-0.2,0.3-0.5,0.6-0.8,0.8
				s-0.8,0.3-1.2,0.3S47,9.8,46.6,9.7z M48.6,8.6c0.2-0.2,0.3-0.5,0.3-0.9c0-0.4-0.1-0.7-0.3-0.9c-0.2-0.2-0.5-0.3-0.8-0.3
				S47.2,6.6,47,6.9c-0.2,0.2-0.3,0.5-0.3,0.9c0,0.4,0.1,0.7,0.3,0.9s0.5,0.3,0.8,0.3S48.4,8.8,48.6,8.6z"/>
			<path class="st4" d="M51,5.6h1.2v1.7h1.9V5.6h1.2v4.3h-1.2V8.3h-1.9v1.6H51V5.6z"/>
			<path class="st4" d="M61.4,8.9v2h-1.2V9.9h-3v0.9h-1.2v-2h0.2c0.3,0,0.5-0.2,0.6-0.5S57,7.6,57,7.1L57,5.6h3.8v3.3H61.4z M58,8.2
				c-0.1,0.3-0.1,0.5-0.3,0.6h1.8V6.6h-1.4l0,0.6C58.1,7.6,58.1,7.9,58,8.2z"/>
		</g>
		<g class="st3">
			<path class="st4" d="M43.4,13.9v5.6h-1.3v-4.5h-2.5v4.5h-1.3v-5.6H43.4z"/>
			<path class="st4" d="M44.8,14.4c-0.1-0.1-0.2-0.3-0.2-0.5s0.1-0.4,0.2-0.5c0.1-0.1,0.3-0.2,0.6-0.2s0.4,0.1,0.6,0.2
				c0.1,0.1,0.2,0.3,0.2,0.5c0,0.2-0.1,0.4-0.2,0.5c-0.1,0.1-0.3,0.2-0.6,0.2S44.9,14.5,44.8,14.4z M44.7,15.2h1.2v4.3h-1.2V15.2z"
				/>
			<path class="st4" d="M52,18.5v2h-1.2v-0.9h-3v0.9h-1.2v-2h0.2c0.3,0,0.5-0.2,0.6-0.5c0.1-0.3,0.2-0.8,0.2-1.3l0.1-1.5h3.8v3.3H52
				z M48.6,17.8c-0.1,0.3-0.1,0.5-0.3,0.6h1.8v-2.3h-1.4l0,0.6C48.7,17.2,48.6,17.5,48.6,17.8z"/>
			<path class="st4" d="M56.4,16.2h-1.5v3.3h-1.2v-3.3h-1.5v-1h4.2V16.2z"/>
			<path class="st4" d="M60.7,15.4c0.3,0.2,0.6,0.4,0.8,0.8c0.2,0.3,0.3,0.7,0.3,1.2c0,0.4-0.1,0.8-0.3,1.2s-0.4,0.6-0.8,0.8
				s-0.7,0.3-1.1,0.3c-0.5,0-1-0.2-1.3-0.5v2H57v-5.9h1.2v0.5c0.3-0.4,0.8-0.6,1.4-0.6C60,15.1,60.3,15.2,60.7,15.4z M60.1,18.2
				c0.2-0.2,0.3-0.5,0.3-0.9c0-0.4-0.1-0.7-0.3-0.9c-0.2-0.2-0.5-0.3-0.8-0.3c-0.3,0-0.6,0.1-0.8,0.3c-0.2,0.2-0.3,0.5-0.3,0.9
				c0,0.4,0.1,0.7,0.3,0.9c0.2,0.2,0.5,0.3,0.8,0.3C59.7,18.5,59.9,18.4,60.1,18.2z"/>
			<path class="st4" d="M62.6,15.2h1.2v2.6l2.1-2.6h1.1v4.3h-1.2v-2.6l-2.1,2.6h-1.2V15.2z"/>
			<path class="st4" d="M72.5,19.5v-2.6l-1.3,2.2h-0.5l-1.3-2.2v2.6h-1.1v-4.3h1.3l1.4,2.5l1.5-2.5h1.2l0,4.3H72.5z"/>
			<path class="st4" d="M76.7,17.8H76v1.6h-1.2v-4.3H76v1.7h0.7l1.2-1.7h1.3l-1.5,2.1l1.6,2.2h-1.5L76.7,17.8z"/>
			<path class="st4" d="M79.9,15.2h1.2v2.6l2.1-2.6h1.1v4.3h-1.2v-2.6l-2.1,2.6h-1.2V15.2z"/>
		</g>
		<g class="st3">
			<path class="st4" d="M38.3,23.5h1.3v5.6h-1.3V23.5z"/>
			<path class="st4" d="M40.9,24.8h1.2v1.7H44v-1.7h1.2v4.3H44v-1.6h-1.9v1.6h-1.2V24.8z"/>
			<path class="st4" d="M46.4,24.8h1.2v1.7h1.9v-1.7h1.2v4.3h-1.2v-1.6h-1.9v1.6h-1.2V24.8z"/>
			<path class="st4" d="M52.8,28.9c-0.4-0.2-0.6-0.5-0.8-0.8c-0.2-0.3-0.3-0.7-0.3-1.1s0.1-0.8,0.3-1.1c0.2-0.3,0.5-0.6,0.8-0.8
				c0.4-0.2,0.8-0.3,1.2-0.3s0.9,0.1,1.2,0.3s0.6,0.5,0.8,0.8c0.2,0.3,0.3,0.7,0.3,1.1s-0.1,0.8-0.3,1.1c-0.2,0.3-0.5,0.6-0.8,0.8
				s-0.8,0.3-1.2,0.3S53.1,29,52.8,28.9z M54.8,27.8c0.2-0.2,0.3-0.5,0.3-0.9c0-0.4-0.1-0.7-0.3-0.9c-0.2-0.2-0.5-0.3-0.8-0.3
				s-0.6,0.1-0.8,0.3c-0.2,0.2-0.3,0.5-0.3,0.9c0,0.4,0.1,0.7,0.3,0.9s0.5,0.3,0.8,0.3S54.6,28,54.8,27.8z"/>
			<path class="st4" d="M61.3,27.9c0,0.4-0.1,0.7-0.4,0.9c-0.3,0.2-0.7,0.3-1.3,0.3h-2.3v-4.3h2.2c0.5,0,1,0.1,1.3,0.3
				c0.3,0.2,0.5,0.5,0.5,0.8c0,0.2-0.1,0.4-0.2,0.6s-0.3,0.3-0.5,0.4C61,27,61.3,27.3,61.3,27.9z M58.4,26.5h0.9
				c0.4,0,0.7-0.2,0.7-0.5c0-0.3-0.2-0.5-0.7-0.5h-0.9V26.5z M60.1,27.8c0-0.2-0.1-0.3-0.2-0.4c-0.1-0.1-0.3-0.1-0.5-0.1h-1.1v1h1
				C59.9,28.2,60.1,28.1,60.1,27.8z"/>
			<path class="st4" d="M65.4,25.2c0.4,0.3,0.5,0.8,0.5,1.4v2.5h-1.2v-0.5c-0.2,0.4-0.7,0.6-1.3,0.6c-0.3,0-0.6-0.1-0.9-0.2
				c-0.2-0.1-0.4-0.3-0.6-0.5s-0.2-0.4-0.2-0.7c0-0.4,0.2-0.7,0.5-0.9c0.3-0.2,0.8-0.3,1.4-0.3h1c0-0.3-0.1-0.5-0.2-0.6
				c-0.2-0.1-0.4-0.2-0.7-0.2c-0.2,0-0.5,0-0.7,0.1c-0.2,0.1-0.4,0.2-0.6,0.3L62,25.2c0.2-0.2,0.5-0.3,0.8-0.4
				c0.3-0.1,0.7-0.1,1-0.1C64.5,24.7,65.1,24.9,65.4,25.2z M64.3,28.2c0.2-0.1,0.3-0.2,0.4-0.4v-0.4h-0.9c-0.5,0-0.8,0.2-0.8,0.5
				c0,0.2,0.1,0.3,0.2,0.4c0.1,0.1,0.3,0.1,0.5,0.1C64,28.3,64.2,28.3,64.3,28.2z"/>
			<path class="st4" d="M71.9,28.1v2h-1.2v-0.9H67v-4.3h1.2v3.3H70v-3.3h1.2v3.3H71.9z"/>
			<path class="st4" d="M72.7,24c-0.1-0.1-0.2-0.3-0.2-0.5s0.1-0.4,0.2-0.5c0.1-0.1,0.3-0.2,0.6-0.2c0.2,0,0.4,0.1,0.6,0.2
				c0.1,0.1,0.2,0.3,0.2,0.5c0,0.2-0.1,0.4-0.2,0.5c-0.1,0.1-0.3,0.2-0.6,0.2C73.1,24.2,72.9,24.1,72.7,24z M72.7,24.8h1.2v4.3h-1.2
				V24.8z"/>
		</g>
		<g class="st3">
			<path class="st4" d="M75.1,24.8h1.2v2.6l2.1-2.6h1.1v4.3h-1.2v-2.6l-2.1,2.6h-1.2V24.8z M75.9,23.1h0.8c0,0.2,0.1,0.3,0.2,0.4
				c0.1,0.1,0.2,0.2,0.4,0.2c0.2,0,0.3-0.1,0.4-0.2c0.1-0.1,0.2-0.2,0.2-0.4h0.8c0,0.8-0.5,1.2-1.4,1.2
				C76.3,24.3,75.9,23.9,75.9,23.1z"/>
		</g>
	</g>
</g>
</svg>
