<?xml version="1.0" encoding="utf-8"?>
<!-- Generator: Adobe Illustrator 24.0.1, SVG Export Plug-In . SVG Version: 6.00 Build 0)  -->
<svg version="1.1" id="Слой_1" xmlns="http://www.w3.org/2000/svg" xmlns:xlink="http://www.w3.org/1999/xlink" x="0px" y="0px"
	 viewBox="0 0 82.7 33" style="enable-background:new 0 0 82.7 33;" xml:space="preserve">
<style type="text/css">
	.st0{fill:#343A40;}
	.st1{fill:#457677;}
	.st2{fill:#CE0000;}
	.st3{enable-background:new    ;}
	.st4{fill:#FFFFFF;}
</style>
<title>logo-w_en</title>
<g id="Слой_2_1_">
	<g id="Слой_1-2">
		<path class="st0" d="M16.5,24.8c-7.2,0-13.7-4.5-16.2-11.2c-0.2,1-0.3,2-0.3,2.9C0,25.6,7.4,33,16.5,33S33,25.6,33,16.5
			c0-1-0.1-2-0.3-2.9C30.2,20.3,23.7,24.8,16.5,24.8z"/>
		<path class="st1" d="M6.8,21c0-9.6,7.9-17.3,17.4-17.3c1,0,2,0.1,3,0.3C20.3-1.9,9.9-1.1,4,5.9s-5.1,17.4,1.9,23.3
			c1.4,1.2,3.1,2.2,4.8,2.9C8.1,28.9,6.8,25,6.8,21z"/>
		<path class="st2" d="M32.9,18.1L32.9,18.1z"/>
		<path class="st2" d="M32.5,20.4L32.5,20.4z"/>
		<path class="st2" d="M33,17.2L33,17.2z"/>
		<path class="st2" d="M33,17.5L33,17.5z"/>
		<path class="st2" d="M26.3,21c0,0.2,0,0.5,0,0.8c3-2,5.2-4.9,6.5-8.2c-1.6-9-10.2-14.9-19.2-13.3C10.7,0.8,8,2.1,5.7,4
			c1.1-0.2,2.1-0.3,3.2-0.3C18.5,3.7,26.3,11.5,26.3,21C26.3,21,26.3,21,26.3,21z"/>
		<path class="st2" d="M33,16.9L33,16.9z"/>
		<path class="st2" d="M33,17.8L33,17.8z"/>
		<path class="st2" d="M32.7,19.7L32.7,19.7z"/>
		<path class="st2" d="M32.6,20L32.6,20z"/>
		<path class="st2" d="M32.8,19.4L32.8,19.4z"/>
		<path class="st2" d="M32.8,18.8L32.8,18.8z"/>
		<path class="st2" d="M32.9,18.5L32.9,18.5z"/>
		<path class="st2" d="M32.8,19.1L32.8,19.1z"/>
		<path class="st2" d="M32.8,13.9v0.1V13.9z"/>
		<path class="st2" d="M33,15.6L33,15.6z"/>
		<path class="st2" d="M33,15.4L33,15.4z"/>
		<path class="st2" d="M33,15.2L33,15.2z"/>
		<path class="st2" d="M33,16.2L33,16.2z"/>
		<path class="st2" d="M32.9,15L32.9,15z"/>
		<path class="st2" d="M33,16L33,16z"/>
		<path class="st2" d="M33,15.8L33,15.8z"/>
		<path class="st2" d="M32.9,14.7c0,0,0,0.1,0,0.1S32.9,14.8,32.9,14.7z"/>
		<path class="st2" d="M32.4,21L32.4,21L32.4,21z"/>
		<path class="st2" d="M32.8,13.8c0,0,0,0.1,0,0.1S32.8,13.8,32.8,13.8z"/>
		<path class="st2" d="M32.8,14.1v0.1V14.1z"/>
		<path class="st2" d="M32.9,14.5v0.1V14.5z"/>
		<path class="st2" d="M32.9,14.3L32.9,14.3z"/>
		<path class="st2" d="M32.7,13.6c0,0,0,0.1,0,0.1S32.8,13.6,32.7,13.6z"/>
		<path class="st2" d="M30.4,25.4L30.4,25.4z"/>
		<path class="st2" d="M29.3,26.9L29.3,26.9z"/>
		<path class="st2" d="M28.9,27.4L28.9,27.4z"/>
		<path class="st2" d="M28.1,28.2L28.1,28.2z"/>
		<path class="st2" d="M29.9,26.2L29.9,26.2z"/>
		<path class="st2" d="M25,30.7"/>
		<path class="st2" d="M29.7,26.4L29.7,26.4z"/>
		<path class="st2" d="M32.3,21.2L32.3,21.2z"/>
		<path class="st2" d="M25.5,30.3L25.5,30.3z"/>
		<path class="st2" d="M27.6,28.7L27.6,28.7z"/>
		<path class="st2" d="M28.5,27.8L28.5,27.8z"/>
		<path class="st2" d="M30,25.9L30,25.9z"/>
		<path class="st2" d="M27.2,29.1"/>
		<path class="st2" d="M26,30L26,30z"/>
		<path class="st2" d="M26.5,29.6"/>
		<path class="st2" d="M29.5,26.7L29.5,26.7z"/>
		<path class="st2" d="M32,22.1L32,22.1L32,22.1z"/>
		<path class="st2" d="M31.9,22.4L31.9,22.4z"/>
		<path class="st2" d="M30.2,25.7L30.2,25.7z"/>
		<path class="st2" d="M32.1,21.8L32.1,21.8z"/>
		<path class="st2" d="M32.2,21.5L32.2,21.5L32.2,21.5z"/>
		<path class="st2" d="M31.7,23L31.7,23z"/>
		<path class="st2" d="M31.8,22.7L31.8,22.7z"/>
		<path class="st2" d="M30.9,24.6L30.9,24.6z"/>
		<path class="st2" d="M31.5,23.3L31.5,23.3z"/>
		<path class="st2" d="M30.5,25.2L30.5,25.2z"/>
		<path class="st2" d="M31.1,24.1L31.1,24.1z"/>
		<path class="st2" d="M31.4,23.6L31.4,23.6z"/>
		<path class="st2" d="M31.3,23.8L31.3,23.8z"/>
		<g class="st3">
			<path class="st4" d="M39.6,5.3v1.5h2.6v1h-2.6v2h-1.3V4.3h4.2v1H39.6z"/>
		</g>
		<g class="st3">
			<path class="st4" d="M47.5,5.6v4.3h-1.2V9.4c-0.2,0.2-0.4,0.3-0.6,0.4S45.3,9.9,45,9.9c-0.6,0-1-0.2-1.3-0.5
				c-0.3-0.3-0.5-0.8-0.5-1.4V5.6h1.2v2.2c0,0.7,0.3,1,0.9,1c0.3,0,0.5-0.1,0.7-0.3c0.2-0.2,0.3-0.5,0.3-0.9V5.6H47.5z"/>
		</g>
		<g class="st3">
			<path class="st4" d="M52.6,6c0.3,0.3,0.5,0.8,0.5,1.4v2.5h-1.2V7.6c0-0.3-0.1-0.6-0.2-0.8S51.2,6.6,51,6.6
				c-0.3,0-0.6,0.1-0.8,0.3c-0.2,0.2-0.3,0.5-0.3,0.9v2.1h-1.2V5.6h1.2v0.5c0.2-0.2,0.4-0.3,0.6-0.4s0.5-0.1,0.8-0.1
				C51.8,5.5,52.3,5.7,52.6,6z"/>
		</g>
		<g class="st3">
			<path class="st4" d="M58.6,3.9v5.9h-1.2V9.4c-0.3,0.4-0.8,0.6-1.3,0.6c-0.4,0-0.8-0.1-1.1-0.3s-0.6-0.4-0.8-0.8
				C54,8.6,54,8.2,54,7.7c0-0.4,0.1-0.8,0.3-1.2C54.4,6.2,54.7,6,55,5.8c0.3-0.2,0.7-0.3,1.1-0.3c0.5,0,1,0.2,1.3,0.5V3.9H58.6z
				 M57.1,8.6c0.2-0.2,0.3-0.5,0.3-0.9c0-0.4-0.1-0.7-0.3-0.9c-0.2-0.2-0.5-0.3-0.8-0.3c-0.3,0-0.6,0.1-0.8,0.3
				c-0.2,0.2-0.3,0.5-0.3,0.9c0,0.4,0.1,0.7,0.3,0.9s0.5,0.3,0.8,0.3C56.6,8.9,56.9,8.8,57.1,8.6z"/>
			<path class="st4" d="M62.9,9.7c-0.4-0.2-0.6-0.5-0.8-0.8c-0.2-0.3-0.3-0.7-0.3-1.1s0.1-0.8,0.3-1.1c0.2-0.3,0.5-0.6,0.8-0.8
				s0.8-0.3,1.2-0.3s0.9,0.1,1.2,0.3s0.6,0.5,0.8,0.8c0.2,0.3,0.3,0.7,0.3,1.1s-0.1,0.8-0.3,1.1c-0.2,0.3-0.5,0.6-0.8,0.8
				s-0.8,0.3-1.2,0.3S63.2,9.8,62.9,9.7z M64.9,8.6c0.2-0.2,0.3-0.5,0.3-0.9c0-0.4-0.1-0.7-0.3-0.9c-0.2-0.2-0.5-0.3-0.8-0.3
				c-0.3,0-0.6,0.1-0.8,0.3C63.1,7.1,63,7.4,63,7.7c0,0.4,0.1,0.7,0.3,0.9s0.5,0.3,0.8,0.3C64.4,8.9,64.7,8.8,64.9,8.6z"/>
			<path class="st4" d="M68.7,5.7h1.1v1h-1.1v3.2h-1.2V6.6h-0.7v-1h0.7V5.5c0-0.5,0.1-0.9,0.4-1.2s0.7-0.4,1.2-0.4
				c0.2,0,0.4,0,0.5,0.1S70,4,70.1,4.1L69.7,5c-0.1-0.1-0.3-0.2-0.5-0.2c-0.4,0-0.6,0.2-0.6,0.6V5.7z"/>
		</g>
		<g class="st3">
			<path class="st4" d="M38.3,13.9h1.3v5.6h-1.3V13.9z"/>
			<path class="st4" d="M44.7,15.6c0.3,0.3,0.5,0.8,0.5,1.4v2.5H44v-2.3c0-0.3-0.1-0.6-0.2-0.8s-0.4-0.3-0.6-0.3
				c-0.3,0-0.6,0.1-0.8,0.3c-0.2,0.2-0.3,0.5-0.3,0.9v2.1h-1.2v-4.3H42v0.5c0.2-0.2,0.4-0.3,0.6-0.4s0.5-0.1,0.8-0.1
				C44,15.1,44.4,15.3,44.7,15.6z"/>
		</g>
		<g class="st3">
			<path class="st4" d="M50.2,15.6c0.3,0.3,0.5,0.8,0.5,1.4v2.5h-1.2v-2.3c0-0.3-0.1-0.6-0.2-0.8s-0.4-0.3-0.6-0.3
				c-0.3,0-0.6,0.1-0.8,0.3c-0.2,0.2-0.3,0.5-0.3,0.9v2.1h-1.2v-4.3h1.2v0.5c0.2-0.2,0.4-0.3,0.6-0.4c0.2-0.1,0.5-0.1,0.8-0.1
				C49.5,15.1,49.9,15.3,50.2,15.6z"/>
		</g>
		<g class="st3">
			<path class="st4" d="M52.7,19.3c-0.4-0.2-0.6-0.5-0.8-0.8c-0.2-0.3-0.3-0.7-0.3-1.1c0-0.4,0.1-0.8,0.3-1.1
				c0.2-0.3,0.5-0.6,0.8-0.8s0.8-0.3,1.2-0.3s0.9,0.1,1.2,0.3s0.6,0.5,0.8,0.8c0.2,0.3,0.3,0.7,0.3,1.1c0,0.4-0.1,0.8-0.3,1.1
				c-0.2,0.3-0.5,0.6-0.8,0.8s-0.8,0.3-1.2,0.3S53.1,19.4,52.7,19.3z M54.8,18.2c0.2-0.2,0.3-0.5,0.3-0.9c0-0.4-0.1-0.7-0.3-0.9
				c-0.2-0.2-0.5-0.3-0.8-0.3c-0.3,0-0.6,0.1-0.8,0.3c-0.2,0.2-0.3,0.5-0.3,0.9c0,0.4,0.1,0.7,0.3,0.9c0.2,0.2,0.5,0.3,0.8,0.3
				C54.3,18.5,54.5,18.4,54.8,18.2z"/>
		</g>
		<g class="st3">
			<path class="st4" d="M61.3,15.2l-1.8,4.3h-1.3l-1.8-4.3h1.3l1.2,2.9l1.2-2.9H61.3z"/>
		</g>
		<g class="st3">
			<path class="st4" d="M64.9,15.6c0.4,0.3,0.5,0.8,0.5,1.4v2.5h-1.2v-0.5c-0.2,0.4-0.7,0.6-1.3,0.6c-0.3,0-0.6-0.1-0.9-0.2
				c-0.2-0.1-0.4-0.3-0.6-0.5s-0.2-0.4-0.2-0.7c0-0.4,0.2-0.7,0.5-0.9c0.3-0.2,0.8-0.3,1.4-0.3h1c0-0.3-0.1-0.5-0.2-0.6
				c-0.2-0.1-0.4-0.2-0.7-0.2c-0.2,0-0.5,0-0.7,0.1c-0.2,0.1-0.4,0.2-0.6,0.3l-0.4-0.9c0.2-0.2,0.5-0.3,0.8-0.4
				c0.3-0.1,0.7-0.1,1-0.1C64.1,15.1,64.6,15.3,64.9,15.6z M63.9,18.6c0.2-0.1,0.3-0.2,0.4-0.4v-0.4h-0.9c-0.5,0-0.8,0.2-0.8,0.5
				c0,0.2,0.1,0.3,0.2,0.4s0.3,0.1,0.5,0.1C63.5,18.7,63.7,18.7,63.9,18.6z"/>
			<path class="st4" d="M69.4,19.3c-0.1,0.1-0.3,0.2-0.5,0.2s-0.4,0.1-0.6,0.1c-0.5,0-0.9-0.1-1.2-0.4c-0.3-0.3-0.4-0.6-0.4-1.2
				v-1.8h-0.7v-1h0.7v-1H68v1h1.1v1H68V18c0,0.2,0,0.3,0.1,0.4c0.1,0.1,0.2,0.1,0.4,0.1c0.2,0,0.4-0.1,0.5-0.2L69.4,19.3z"/>
			<path class="st4" d="M70.2,14.4c-0.1-0.1-0.2-0.3-0.2-0.5s0.1-0.4,0.2-0.5c0.1-0.1,0.3-0.2,0.6-0.2s0.4,0.1,0.6,0.2
				c0.1,0.1,0.2,0.3,0.2,0.5c0,0.2-0.1,0.4-0.2,0.5c-0.1,0.1-0.3,0.2-0.6,0.2S70.3,14.5,70.2,14.4z M70.1,15.2h1.2v4.3h-1.2V15.2z"
				/>
			<path class="st4" d="M73.3,19.3c-0.4-0.2-0.6-0.5-0.8-0.8c-0.2-0.3-0.3-0.7-0.3-1.1c0-0.4,0.1-0.8,0.3-1.1
				c0.2-0.3,0.5-0.6,0.8-0.8c0.4-0.2,0.8-0.3,1.2-0.3c0.5,0,0.9,0.1,1.2,0.3s0.6,0.5,0.8,0.8s0.3,0.7,0.3,1.1c0,0.4-0.1,0.8-0.3,1.1
				s-0.5,0.6-0.8,0.8s-0.8,0.3-1.2,0.3C74.1,19.5,73.7,19.4,73.3,19.3z M75.3,18.2c0.2-0.2,0.3-0.5,0.3-0.9c0-0.4-0.1-0.7-0.3-0.9
				c-0.2-0.2-0.5-0.3-0.8-0.3c-0.3,0-0.6,0.1-0.8,0.3c-0.2,0.2-0.3,0.5-0.3,0.9c0,0.4,0.1,0.7,0.3,0.9c0.2,0.2,0.5,0.3,0.8,0.3
				C74.9,18.5,75.1,18.4,75.3,18.2z"/>
			<path class="st4" d="M81.6,15.6c0.3,0.3,0.5,0.8,0.5,1.4v2.5h-1.2v-2.3c0-0.3-0.1-0.6-0.2-0.8s-0.4-0.3-0.6-0.3
				c-0.3,0-0.6,0.1-0.8,0.3C79.1,16.7,79,17,79,17.4v2.1h-1.2v-4.3h1.2v0.5c0.2-0.2,0.4-0.3,0.6-0.4s0.5-0.1,0.8-0.1
				C80.9,15.1,81.3,15.3,81.6,15.6z"/>
		</g>
		<g class="st3">
			<path class="st4" d="M38.8,29c-0.4-0.1-0.7-0.3-1-0.5l0.4-1c0.2,0.2,0.5,0.3,0.9,0.4c0.3,0.1,0.7,0.2,1,0.2
				c0.4,0,0.6-0.1,0.8-0.2c0.2-0.1,0.3-0.3,0.3-0.4c0-0.1-0.1-0.2-0.2-0.3S40.8,27,40.6,27c-0.2-0.1-0.4-0.1-0.7-0.2
				c-0.4-0.1-0.8-0.2-1-0.3c-0.3-0.1-0.5-0.3-0.7-0.5c-0.2-0.2-0.3-0.5-0.3-0.9c0-0.3,0.1-0.6,0.3-0.9c0.2-0.3,0.4-0.5,0.8-0.6
				c0.4-0.2,0.8-0.2,1.3-0.2c0.4,0,0.7,0,1,0.1c0.3,0.1,0.6,0.2,0.9,0.4l-0.4,1c-0.5-0.3-1-0.4-1.6-0.4c-0.4,0-0.6,0.1-0.8,0.2
				c-0.2,0.1-0.3,0.3-0.3,0.5c0,0.2,0.1,0.3,0.3,0.4c0.2,0.1,0.5,0.2,0.9,0.3c0.4,0.1,0.8,0.2,1,0.3s0.5,0.3,0.7,0.5
				c0.2,0.2,0.3,0.5,0.3,0.9c0,0.3-0.1,0.6-0.3,0.9c-0.2,0.3-0.4,0.5-0.8,0.6c-0.4,0.2-0.8,0.2-1.3,0.2C39.7,29.2,39.2,29.1,38.8,29
				z"/>
			<path class="st4" d="M47.6,24.8v4.3h-1.2v-0.5c-0.2,0.2-0.4,0.3-0.6,0.4c-0.2,0.1-0.5,0.1-0.7,0.1c-0.6,0-1-0.2-1.3-0.5
				c-0.3-0.3-0.5-0.8-0.5-1.4v-2.4h1.2V27c0,0.7,0.3,1,0.9,1c0.3,0,0.5-0.1,0.7-0.3c0.2-0.2,0.3-0.5,0.3-0.9v-2.1H47.6z"/>
			<path class="st4" d="M52.4,25c0.3,0.2,0.6,0.4,0.8,0.8c0.2,0.3,0.3,0.7,0.3,1.2c0,0.4-0.1,0.8-0.3,1.2c-0.2,0.3-0.4,0.6-0.8,0.8
				c-0.3,0.2-0.7,0.3-1.1,0.3c-0.5,0-1-0.2-1.3-0.5v2h-1.2v-5.9H50v0.5c0.3-0.4,0.8-0.6,1.4-0.6C51.7,24.7,52.1,24.8,52.4,25z
				 M51.9,27.8c0.2-0.2,0.3-0.5,0.3-0.9c0-0.4-0.1-0.7-0.3-0.9c-0.2-0.2-0.5-0.3-0.8-0.3c-0.3,0-0.6,0.1-0.8,0.3
				c-0.2,0.2-0.3,0.5-0.3,0.9c0,0.4,0.1,0.7,0.3,0.9c0.2,0.2,0.5,0.3,0.8,0.3C51.4,28.1,51.7,28,51.9,27.8z"/>
			<path class="st4" d="M57.9,25c0.3,0.2,0.6,0.4,0.8,0.8c0.2,0.3,0.3,0.7,0.3,1.2c0,0.4-0.1,0.8-0.3,1.2c-0.2,0.3-0.4,0.6-0.8,0.8
				c-0.3,0.2-0.7,0.3-1.1,0.3c-0.5,0-1-0.2-1.3-0.5v2h-1.2v-5.9h1.2v0.5c0.3-0.4,0.8-0.6,1.4-0.6C57.2,24.7,57.6,24.8,57.9,25z
				 M57.4,27.8c0.2-0.2,0.3-0.5,0.3-0.9c0-0.4-0.1-0.7-0.3-0.9c-0.2-0.2-0.5-0.3-0.8-0.3s-0.6,0.1-0.8,0.3c-0.2,0.2-0.3,0.5-0.3,0.9
				c0,0.4,0.1,0.7,0.3,0.9s0.5,0.3,0.8,0.3S57.2,28,57.4,27.8z"/>
			<path class="st4" d="M60.7,28.9c-0.4-0.2-0.6-0.5-0.8-0.8c-0.2-0.3-0.3-0.7-0.3-1.1s0.1-0.8,0.3-1.1c0.2-0.3,0.5-0.6,0.8-0.8
				c0.4-0.2,0.8-0.3,1.2-0.3c0.5,0,0.9,0.1,1.2,0.3s0.6,0.5,0.8,0.8s0.3,0.7,0.3,1.1s-0.1,0.8-0.3,1.1s-0.5,0.6-0.8,0.8
				s-0.8,0.3-1.2,0.3C61.4,29.1,61,29,60.7,28.9z M62.7,27.8c0.2-0.2,0.3-0.5,0.3-0.9c0-0.4-0.1-0.7-0.3-0.9
				c-0.2-0.2-0.5-0.3-0.8-0.3c-0.3,0-0.6,0.1-0.8,0.3c-0.2,0.2-0.3,0.5-0.3,0.9c0,0.4,0.1,0.7,0.3,0.9s0.5,0.3,0.8,0.3
				C62.2,28.1,62.5,28,62.7,27.8z"/>
		</g>
		<g class="st3">
			<path class="st4" d="M66.9,24.9c0.3-0.1,0.5-0.2,0.9-0.2v1.2c-0.1,0-0.2,0-0.3,0c-0.4,0-0.6,0.1-0.8,0.3
				c-0.2,0.2-0.3,0.5-0.3,0.9v2h-1.2v-4.3h1.2v0.6C66.4,25.1,66.6,25,66.9,24.9z"/>
		</g>
		<g class="st3">
			<path class="st4" d="M71.4,28.9C71.3,29,71.1,29,71,29.1s-0.4,0.1-0.6,0.1c-0.5,0-0.9-0.1-1.2-0.4c-0.3-0.3-0.4-0.6-0.4-1.2v-1.8
				h-0.7v-1h0.7v-1H70v1h1.1v1H70v1.8c0,0.2,0,0.3,0.1,0.4s0.2,0.1,0.4,0.1c0.2,0,0.4-0.1,0.5-0.2L71.4,28.9z"/>
		</g>
	</g>
</g>
</svg>
