<?xml version="1.0" standalone="no"?>
<!DOCTYPE svg PUBLIC "-//W3C//DTD SVG 20010904//EN"
 "http://www.w3.org/TR/2001/REC-SVG-20010904/DTD/svg10.dtd">
<svg version="1.0" xmlns="http://www.w3.org/2000/svg"
 width="3926.000000pt" height="3926.000000pt" viewBox="0 0 3926.000000 3926.000000"
 preserveAspectRatio="xMidYMid meet">
<metadata>
Created by potrace 1.11, written by Peter Selinger 2001-2013
</metadata>
<g transform="translate(0.000000,3926.000000) scale(0.100000,-0.100000)"
fill="#000000" stroke="none">
<path d="M19377 39254 c-1 -1 -132 -5 -292 -8 -159 -4 -319 -9 -355 -11 -36
-2 -117 -6 -180 -10 -63 -3 -142 -7 -175 -10 -33 -2 -100 -7 -150 -10 -169
-12 -385 -30 -480 -40 -22 -3 -71 -7 -110 -10 -38 -3 -81 -8 -95 -10 -14 -2
-50 -7 -80 -10 -122 -12 -226 -24 -260 -30 -14 -3 -47 -7 -75 -10 -80 -9 -339
-44 -470 -65 -66 -10 -138 -21 -160 -25 -23 -3 -50 -7 -62 -9 -11 -3 -38 -7
-59 -10 -22 -4 -115 -20 -209 -37 -93 -17 -181 -33 -195 -35 -315 -54 -1063
-226 -1499 -345 -1005 -273 -1979 -625 -2951 -1064 -225 -102 -873 -420 -1070
-526 -753 -404 -1425 -815 -2054 -1258 -98 -69 -188 -133 -200 -141 -118 -81
-544 -403 -766 -579 -126 -100 -486 -395 -500 -411 -3 -3 -36 -32 -75 -65 -38
-33 -72 -62 -75 -65 -3 -3 -39 -34 -80 -70 -92 -80 -133 -116 -175 -155 -17
-16 -72 -66 -120 -110 -330 -298 -776 -740 -1120 -1106 -138 -147 -261 -284
-405 -449 -201 -230 -197 -226 -255 -295 -28 -33 -60 -71 -72 -85 -11 -14 -49
-59 -83 -100 -34 -41 -69 -84 -78 -95 -47 -57 -318 -404 -387 -495 -44 -58
-84 -109 -88 -115 -14 -17 -251 -342 -267 -365 -8 -12 -33 -47 -56 -78 -201
-282 -482 -708 -712 -1084 -120 -195 -180 -297 -325 -548 -61 -106 -147 -263
-147 -267 0 -3 -15 -31 -34 -62 -63 -106 -375 -717 -473 -926 -23 -50 -67
-143 -97 -209 -31 -65 -56 -120 -56 -121 0 -2 -18 -43 -41 -92 -55 -119 -246
-570 -304 -718 -26 -66 -53 -133 -60 -150 -7 -16 -47 -122 -89 -235 -42 -113
-80 -212 -83 -220 -3 -8 -7 -19 -9 -25 -1 -5 -25 -74 -53 -153 -28 -78 -85
-247 -127 -375 -104 -318 -110 -337 -199 -642 -15 -49 -30 -101 -35 -115 -4
-14 -18 -63 -30 -110 -12 -47 -31 -114 -41 -150 -56 -198 -223 -900 -253
-1060 -2 -14 -9 -45 -15 -70 -11 -50 -19 -89 -27 -140 -3 -19 -12 -62 -19 -95
-8 -33 -16 -76 -19 -95 -6 -38 -13 -74 -22 -117 -11 -55 -63 -349 -68 -388 -4
-22 -8 -51 -11 -65 -2 -14 -7 -43 -10 -65 -3 -22 -12 -80 -19 -130 -8 -49 -17
-112 -21 -140 -3 -27 -8 -61 -10 -75 -4 -23 -20 -150 -30 -230 -2 -19 -9 -71
-14 -115 -5 -44 -13 -107 -16 -140 -3 -33 -8 -76 -10 -95 -6 -47 -23 -218 -30
-305 -3 -38 -8 -92 -10 -120 -10 -112 -14 -164 -20 -255 -3 -52 -8 -113 -10
-135 -2 -22 -7 -103 -10 -180 -4 -77 -8 -162 -10 -190 -8 -95 -19 -651 -19
-910 0 -253 12 -819 19 -900 1 -22 6 -105 10 -185 3 -80 8 -165 10 -190 2 -25
7 -85 10 -135 9 -150 57 -685 70 -780 2 -16 9 -73 15 -125 17 -150 20 -173 25
-200 2 -14 7 -50 10 -80 4 -30 10 -82 15 -115 5 -33 12 -80 15 -105 3 -25 10
-70 15 -100 5 -30 12 -75 15 -100 17 -121 101 -600 144 -819 313 -1567 781
-2995 1471 -4486 89 -193 310 -635 417 -835 181 -339 187 -349 315 -574 679
-1187 1494 -2319 2412 -3346 118 -132 147 -164 297 -324 328 -352 904 -920
1119 -1106 14 -12 45 -40 70 -63 25 -23 83 -76 130 -117 47 -41 87 -77 90 -80
3 -3 37 -32 75 -65 39 -33 72 -62 75 -65 3 -3 61 -53 130 -110 69 -58 134
-112 145 -122 204 -172 668 -533 945 -734 1516 -1101 3157 -1978 4830 -2579
118 -43 235 -85 260 -95 110 -43 756 -249 1005 -320 656 -188 1379 -357 1935
-454 47 -9 123 -22 169 -31 72 -12 358 -58 441 -70 14 -2 41 -6 60 -9 19 -3
85 -12 145 -21 61 -8 124 -17 140 -20 17 -2 57 -7 90 -10 33 -4 74 -9 90 -11
82 -10 205 -25 250 -29 28 -3 66 -8 85 -10 19 -3 67 -7 105 -10 39 -4 86 -8
105 -10 33 -4 115 -11 225 -20 28 -2 88 -7 135 -10 47 -3 103 -7 125 -10 22
-2 96 -7 165 -10 69 -4 145 -8 170 -10 362 -27 1743 -27 2050 0 25 2 106 6
180 10 74 3 146 8 160 10 14 2 75 6 135 10 61 3 124 8 140 10 17 2 66 7 110
10 44 3 186 17 315 30 236 25 265 28 395 45 39 5 93 12 120 15 28 3 61 8 75
10 14 2 79 11 145 20 66 9 143 20 170 25 28 5 66 11 85 14 212 30 705 120 975
177 105 23 199 43 210 45 54 10 504 116 610 144 214 56 338 89 465 125 69 19
132 37 141 39 34 9 292 86 434 131 755 236 1556 544 2292 881 196 89 850 411
988 486 44 24 125 68 180 97 194 105 732 413 845 486 19 12 121 75 225 140
214 133 662 430 865 573 424 300 944 698 1285 985 100 84 400 341 405 346 3 3
43 40 90 81 46 41 94 84 106 95 11 11 45 42 75 69 347 314 969 937 1274 1276
32 36 75 83 96 105 34 38 109 121 168 190 14 17 56 64 92 105 36 41 136 161
223 265 202 243 182 219 246 300 30 38 60 77 67 85 57 70 275 356 406 531 199
266 602 856 792 1159 39 62 79 126 90 143 57 88 327 544 410 692 414 741 759
1451 1039 2135 38 91 72 174 77 185 33 76 136 345 258 676 326 885 671 2168
836 3114 40 226 54 313 60 355 3 25 8 52 10 60 4 13 55 359 70 470 12 90 36
280 40 320 3 25 7 63 10 85 3 22 7 60 10 85 18 161 46 473 60 660 3 47 8 103
10 125 2 22 7 101 11 175 3 74 8 155 9 180 13 179 20 527 20 1020 0 518 -4
703 -20 1025 -7 147 -22 376 -30 480 -7 79 -14 165 -20 245 -3 36 -7 81 -10
100 -2 19 -7 67 -10 105 -3 39 -8 86 -10 105 -2 19 -9 80 -15 135 -6 55 -13
114 -15 132 -3 17 -9 73 -15 125 -6 51 -12 104 -15 118 -2 14 -7 43 -9 65 -15
119 -19 142 -22 160 -2 11 -11 67 -19 125 -19 140 -94 591 -99 599 -2 3 -7 22
-10 41 -8 49 -16 91 -21 120 -3 14 -7 36 -10 50 -13 66 -25 127 -30 150 -3 14
-7 36 -10 50 -4 22 -50 248 -60 293 -2 9 -6 20 -8 25 -3 4 -8 25 -11 47 -4 22
-20 99 -37 170 -17 72 -32 137 -34 145 -2 8 -8 35 -15 60 -7 25 -13 52 -15 60
-13 64 -144 555 -196 730 -120 409 -257 834 -343 1070 -9 25 -18 52 -20 60
-13 52 -304 803 -362 935 -10 22 -18 42 -19 45 -7 23 -219 506 -270 615 -25
55 -72 154 -102 220 -56 120 -351 707 -413 820 -18 33 -47 87 -65 120 -165
305 -489 861 -609 1045 -86 132 -116 181 -116 190 0 5 -4 10 -8 10 -4 0 -24
27 -43 60 -18 33 -37 60 -41 60 -5 0 -8 6 -8 13 0 7 -9 23 -20 35 -11 12 -20
24 -20 26 0 12 -404 601 -457 666 -7 8 -56 76 -110 150 -54 75 -125 171 -158
214 -93 122 -214 279 -228 296 -6 9 -57 72 -112 140 -55 69 -107 134 -117 145
-9 11 -53 65 -98 120 -45 55 -101 123 -125 150 -93 110 -182 212 -211 245 -17
19 -55 62 -84 95 -100 113 -193 216 -359 395 -210 228 -911 922 -1078 1068
-18 16 -171 154 -197 177 -6 6 -65 58 -131 115 -66 58 -129 113 -140 123 -11
11 -99 85 -195 166 -1985 1669 -4333 2948 -6805 3707 -303 93 -332 102 -580
169 -490 135 -1201 298 -1580 365 -33 5 -71 12 -85 15 -124 24 -542 92 -740
120 -19 3 -48 7 -65 10 -64 10 -461 60 -555 70 -30 3 -71 8 -90 10 -33 4 -70
8 -210 20 -30 3 -80 7 -110 10 -149 14 -144 14 -360 30 -143 10 -265 17 -525
30 -241 12 -1138 26 -1148 19z m485 -6596 c123 -62 249 -127 281 -145 33 -18
63 -33 69 -33 5 0 22 -8 36 -18 15 -11 86 -49 157 -87 72 -37 135 -71 140 -75
6 -4 35 -21 65 -37 117 -64 240 -133 345 -195 61 -36 117 -68 125 -71 8 -4 66
-38 128 -77 63 -38 118 -70 123 -70 5 0 9 -4 9 -10 0 -5 4 -10 9 -10 9 0 43
-21 185 -111 40 -25 76 -48 82 -50 18 -8 365 -234 381 -248 7 -6 14 -11 17
-11 22 0 690 -472 1031 -729 256 -192 705 -550 855 -681 14 -12 47 -40 74 -63
82 -69 208 -177 221 -190 7 -7 25 -23 41 -36 23 -19 151 -133 220 -196 448
-407 954 -906 1271 -1251 15 -17 66 -73 113 -124 47 -51 96 -105 110 -120 63
-68 165 -183 183 -208 12 -15 24 -29 27 -32 14 -11 118 -131 205 -235 28 -33
52 -62 55 -65 3 -3 28 -32 55 -65 28 -33 55 -65 60 -71 6 -6 24 -28 40 -48 17
-21 71 -88 120 -150 50 -61 134 -167 188 -236 53 -69 103 -132 110 -140 6 -8
78 -103 158 -210 176 -235 306 -416 468 -650 43 -62 275 -409 296 -442 6 -9
60 -94 121 -190 119 -185 272 -431 332 -535 20 -36 42 -72 47 -81 69 -116 125
-212 125 -215 0 -3 17 -34 38 -68 22 -35 81 -140 132 -234 51 -93 104 -190
118 -215 37 -67 210 -405 290 -565 86 -174 226 -466 284 -595 12 -25 35 -76
53 -115 18 -38 83 -189 144 -335 62 -146 119 -278 126 -295 7 -16 34 -84 60
-150 26 -66 53 -133 60 -150 18 -39 191 -506 245 -660 56 -158 238 -706 255
-770 8 -27 23 -81 35 -120 40 -132 120 -410 124 -432 3 -13 7 -26 10 -31 4 -8
22 -74 97 -362 11 -41 22 -86 25 -99 3 -12 23 -96 45 -185 22 -88 47 -192 55
-231 9 -38 17 -77 19 -85 17 -65 149 -709 159 -775 9 -55 26 -152 41 -225 2
-14 7 -41 10 -60 3 -19 10 -60 15 -90 6 -30 12 -68 14 -85 3 -27 39 -260 50
-332 11 -73 23 -152 30 -215 3 -27 9 -69 12 -95 3 -27 7 -59 9 -73 2 -14 7
-52 11 -85 3 -33 8 -68 10 -77 1 -9 6 -48 9 -85 4 -37 8 -79 10 -92 3 -14 7
-54 10 -90 3 -36 8 -80 10 -97 3 -17 7 -67 10 -110 3 -44 8 -90 10 -104 5 -31
17 -178 29 -380 4 -58 9 -121 11 -140 2 -19 6 -98 10 -175 4 -77 8 -167 10
-200 25 -383 24 -1796 0 -1835 -13 -21 -583 -391 -905 -587 -120 -73 -419
-249 -505 -298 -125 -70 -319 -177 -386 -213 -41 -22 -130 -70 -199 -107 -69
-37 -276 -142 -460 -234 -854 -424 -1708 -777 -2620 -1081 -216 -72 -544 -177
-595 -190 -16 -5 -140 -40 -275 -78 -470 -134 -1052 -279 -1390 -346 -14 -2
-104 -20 -200 -40 -246 -49 -474 -90 -695 -126 -104 -17 -201 -32 -215 -35
-58 -9 -299 -44 -345 -49 -27 -4 -61 -8 -75 -11 -14 -2 -47 -7 -75 -10 -27 -3
-61 -7 -75 -10 -14 -2 -52 -7 -85 -10 -33 -3 -71 -8 -85 -10 -24 -4 -287 -32
-380 -41 -57 -5 -256 -23 -335 -30 -33 -2 -80 -7 -105 -9 -25 -2 -92 -7 -150
-10 -58 -4 -125 -8 -150 -10 -25 -2 -106 -6 -180 -10 -74 -3 -157 -8 -185 -10
-347 -24 -1291 -24 -1850 0 -272 11 -437 22 -800 50 -213 17 -700 67 -780 80
-16 3 -50 7 -75 9 -40 4 -384 50 -450 61 -65 10 -219 34 -255 39 -89 13 -352
59 -550 96 -1032 193 -2166 500 -3105 840 -63 23 -144 52 -180 65 -350 124
-1086 428 -1535 635 -215 99 -749 363 -908 449 -40 21 -112 60 -162 86 -464
246 -1019 573 -1480 873 -121 79 -308 203 -314 208 -3 2 -6 28 -7 57 -24 459
-23 1478 1 1897 2 30 6 111 10 180 11 218 18 328 30 460 3 30 8 87 11 125 6
85 10 131 18 210 3 33 8 89 11 125 3 36 7 74 9 85 2 11 7 56 11 100 4 44 8 82
10 85 1 3 6 41 10 84 4 43 8 86 10 95 1 9 6 43 10 76 3 33 17 137 31 230 13
94 26 190 29 215 3 25 12 83 20 130 7 47 16 103 20 125 3 22 10 65 15 95 5 30
12 73 15 95 11 65 12 73 45 245 17 91 33 179 36 195 22 127 132 643 158 745 2
8 18 74 35 145 25 105 71 291 85 340 1 6 6 26 10 45 5 19 24 91 43 160 19 69
36 134 39 145 2 11 11 43 19 70 8 28 31 106 51 175 20 69 47 161 59 205 80
276 272 846 410 1220 71 193 283 728 321 810 12 28 32 75 44 105 12 30 35 83
51 118 16 35 29 65 29 67 0 7 198 440 265 580 85 177 316 641 360 720 18 33
52 96 75 140 81 151 113 210 200 365 73 130 196 344 230 400 383 632 519 843
915 1413 48 70 171 242 187 262 15 18 63 82 83 111 41 57 280 371 319 420 23
28 50 63 61 78 11 16 37 47 57 70 21 22 38 44 38 48 0 4 6 13 13 20 7 7 42 49
77 93 36 44 67 82 70 85 3 3 24 27 45 55 22 27 50 61 62 75 11 14 65 77 118
140 54 63 124 144 155 180 123 140 146 166 177 200 17 19 40 44 50 56 16 19
119 132 212 232 219 239 667 692 915 927 82 77 156 147 165 156 22 21 139 129
245 224 104 94 91 83 186 165 41 36 80 70 86 75 9 8 68 60 156 137 10 9 38 31
61 50 23 18 60 49 82 69 22 19 90 75 150 124 61 49 112 92 115 95 3 3 48 39
100 80 52 41 100 79 106 85 7 5 44 35 84 65 40 30 98 75 129 100 32 25 69 53
82 63 13 10 101 75 196 145 223 165 264 195 473 342 164 115 597 404 720 480
30 19 57 37 60 40 3 3 16 11 30 19 14 8 95 58 180 111 85 53 166 103 180 110
14 8 48 29 77 47 28 18 54 33 58 33 4 0 19 8 33 19 15 10 47 30 72 43 25 14
96 55 159 92 62 36 115 66 116 66 1 0 40 22 86 48 46 27 125 70 174 97 50 26
114 61 143 77 169 91 611 316 624 317 4 1 107 -49 230 -111z"/>
</g>
</svg>
