<?xml version="1.0" encoding="utf-8"?>
<!-- Generator: Adobe Illustrator 23.0.1, SVG Export Plug-In . SVG Version: 6.00 Build 0)  -->
<svg version="1.1" id="Layer_5" xmlns="http://www.w3.org/2000/svg" xmlns:xlink="http://www.w3.org/1999/xlink" x="0px" y="0px"
	 viewBox="0 0 512 512" style="enable-background:new 0 0 512 512;" xml:space="preserve">
<style type="text/css">
	.st0{fill:#D39E00;}
	.st1{fill:#242424;}
</style>
<path class="st0" d="M200,40v56h8c8.8,0,16,7.2,16,16c0,2.9-0.8,5.6-2.2,8H328V40H200z"/>
<path class="st0" d="M344,40h128v40H344V40z"/>
<path class="st1" d="M504,248V8H168v80h-44.3c7.6-8.5,12.3-19.7,12.3-32c0-26.5-21.5-48-48-48S40,29.5,40,56
	c0,14.4,6.4,27.2,16.4,36C28.3,101.8,8,128.6,8,160v24c0,17.6,14.4,32,32,32v84c0,4.3,1.1,8.4,2.8,12H8v64h34.8
	c-1.8,5-2.8,10.4-2.8,16c0,14.4,6.4,27.2,16.4,36C28.3,437.8,8,464.6,8,496v8h144h16h128h16h144v-8c0-31.4-20.3-58.2-48.4-68
	c10-8.8,16.4-21.7,16.4-36c0-5.6-1-11-2.8-16H504v-64h-51.5l-38.4-64H504z M184,24h304v208H184v-96h24c13.2,0,24-10.8,24-24
	s-10.8-24-24-24h-24V24z M133.2,312c1.7-3.6,2.8-7.7,2.8-12V136h32v112h89.9l-38.4,64H133.2z M276.5,248h21.3l-38.4,64h-21.3
	L276.5,248z M312,255.6V312h-33.9L312,255.6z M328,248h16v64h-16V248z M360,255.6l33.9,56.4H360V255.6z M88,24c17.6,0,32,14.4,32,32
	s-14.4,32-32,32S56,73.6,56,56S70.4,24,88,24z M56,300V160H40v40c-8.8,0-16-7.2-16-16v-24c0-30.9,25.1-56,56-56h128c4.4,0,8,3.6,8,8
	s-3.6,8-8,8h-88v180c0,6.6-5.4,12-12,12s-12-5.4-12-12V192H80v108c0,6.6-5.4,12-12,12S56,306.6,56,300z M88,360
	c17.6,0,32,14.4,32,32s-14.4,32-32,32s-32-14.4-32-32S70.4,360,88,360z M24.6,488c3.9-27.1,27.3-48,55.4-48h16
	c28.2,0,51.5,20.9,55.4,48H24.6z M119.6,428c10-8.8,16.4-21.7,16.4-36c0-5.6-1-11-2.8-16h53.6c-1.8,5-2.8,10.4-2.8,16
	c0,14.4,6.4,27.2,16.4,36c-17.5,6.1-32,18.8-40.4,35.1C151.6,446.8,137.1,434.2,119.6,428L119.6,428z M264,392c0,17.6-14.4,32-32,32
	s-32-14.4-32-32s14.4-32,32-32S264,374.4,264,392z M168.6,488c3.9-27.1,27.3-48,55.4-48h16c28.2,0,51.5,20.9,55.4,48H168.6z
	 M263.6,428c10-8.8,16.4-21.7,16.4-36c0-5.6-1-11-2.8-16h53.6c-1.8,5-2.8,10.4-2.8,16c0,14.4,6.4,27.2,16.4,36
	c-17.5,6.1-32,18.8-40.4,35.1C295.6,446.8,281.1,434.2,263.6,428L263.6,428z M384,440c28.2,0,51.5,20.9,55.4,48H312.6
	c3.9-27.1,27.3-48,55.4-48H384z M376,424c-17.6,0-32-14.4-32-32s14.4-32,32-32s32,14.4,32,32S393.6,424,376,424z M488,360h-76.3
	c-8.8-9.8-21.5-16-35.7-16s-26.9,6.2-35.7,16h-72.6c-8.8-9.8-21.5-16-35.7-16s-26.9,6.2-35.7,16h-72.6c-8.8-9.8-21.5-16-35.7-16
	s-26.9,6.2-35.7,16H24v-32h464L488,360z M433.9,312h-21.3l-38.4-64h21.3L433.9,312z"/>
<path class="st1" d="M472,104h-16v96h-16v-80h-16v80h-16v-32h-16v32h-16v-48h-16v48h-16v-16h-16v16h-16v-64h-16v64h-16v16h192V104z"
	/>
<path class="st1" d="M344,40h16v16h-16V40z"/>
<path class="st1" d="M376,40h96v16h-96V40z"/>
<path class="st1" d="M344,72h128v16H344V72z"/>
<path class="st1" d="M200,168h16v16h-16V168z"/>
<path class="st1" d="M200,200h16v16h-16V200z"/>
</svg>
