<?xml version="1.0" encoding="utf-8"?>
<!-- Generator: Adobe Illustrator 23.0.1, SVG Export Plug-In . SVG Version: 6.00 Build 0)  -->
<svg version="1.1" id="Capa_1" xmlns="http://www.w3.org/2000/svg" xmlns:xlink="http://www.w3.org/1999/xlink" x="0px" y="0px"
	 viewBox="0 0 512 512" style="enable-background:new 0 0 512 512;" xml:space="preserve">
<style type="text/css">
	.st0{fill:#FFFFFF;}
	.st1{fill:#FFF7D2;}
	.st2{fill:#D39E00;}
	.st3{fill:#D1B161;}
	.st4{fill:#242424;}
</style>
<path class="st0" d="M110.9,8.5h392.5l0,0v474.7c0,11.2-9.1,20.3-20.3,20.3H110.9l0,0V8.5L110.9,8.5z"/>
<g>
	<path class="st1" d="M476.2,502.6c1.2,0.2,2.4,0.4,3.6,0.5C478.5,503,477.4,502.8,476.2,502.6z"/>
	<path class="st1" d="M469.5,501.3c1.2,0.3,2.3,0.6,3.5,0.9C471.8,501.9,470.6,501.6,469.5,501.3z"/>
	<path class="st1" d="M438.3,483.6c-0.9-0.9-1.6-1.7-2.4-2.6C436.7,481.9,437.4,482.8,438.3,483.6z"/>
	<path class="st1" d="M463,499.3c1.1,0.4,2.2,0.9,3.3,1.2C465.2,500.1,464.1,499.7,463,499.3z"/>
	<path class="st1" d="M431.7,475.9c0.7,1,1.4,2,2.2,2.9C433.1,477.9,432.4,476.8,431.7,475.9z"/>
	<path class="st1" d="M418.8,444.3c0.2,1.6,0.4,3.2,0.7,4.7C419.2,447.5,419,445.9,418.8,444.3z"/>
	<path class="st1" d="M418.1,435.2c0,2.3,0.1,4.7,0.4,7C418.3,439.9,418.1,437.5,418.1,435.2z"/>
	<path class="st1" d="M420.2,451.7c0.3,1.3,0.6,2.6,1,3.8C420.8,454.3,420.5,453,420.2,451.7z"/>
	<path class="st1" d="M424.8,464.5c0.5,1.1,1,2.3,1.6,3.4C425.8,466.8,425.3,465.6,424.8,464.5z"/>
	<path class="st1" d="M422.2,458.2c0.4,1.2,0.9,2.4,1.3,3.6C423,460.7,422.6,459.4,422.2,458.2z"/>
	<path class="st1" d="M456.9,496.7c1.1,0.5,2.1,1,3.2,1.5C459,497.7,458,497.2,456.9,496.7z"/>
	<path class="st1" d="M428,470.4c0.6,1,1.2,2.1,1.9,3.1C429.2,472.5,428.6,471.4,428,470.4z"/>
	<path class="st1" d="M440.5,485.7c0.9,0.8,1.7,1.6,2.6,2.3C442.2,487.3,441.4,486.4,440.5,485.7z"/>
	<path class="st1" d="M445.6,489.8c0.9,0.7,1.9,1.4,2.8,2.1C447.4,491.3,446.5,490.5,445.6,489.8z"/>
	<path class="st1" d="M451.1,493.6c1,0.6,2,1.2,3,1.8C453.1,494.8,452.1,494.2,451.1,493.6z"/>
	<path class="st1" d="M440.5,485.7c-0.8-0.7-1.5-1.3-2.3-2.1C439,484.3,439.8,485,440.5,485.7z"/>
</g>
<path class="st0" d="M476.2,502.6c-1.1-0.2-2.1-0.3-3.2-0.5c-1-0.2-2.3-0.6-3.5-0.9s-2.1-0.5-3.1-0.8c-1-0.3-2.2-0.8-3.3-1.2
	s-2-0.7-3-1.1c-1-0.4-2.1-1-3.2-1.5c-1.1-0.5-1.9-0.9-2.8-1.4s-2-1.2-3-1.8c-1-0.6-1.8-1-2.7-1.6c-0.9-0.6-1.9-1.4-2.8-2.1
	c-0.9-0.7-1.7-1.2-2.5-1.8s-1.7-1.6-2.6-2.3s-1.5-1.3-2.3-2.1c-0.7-0.7-1.6-1.7-2.4-2.6c-0.7-0.7-1.4-1.5-2-2.2
	c-0.8-0.9-1.5-1.9-2.2-2.9c-0.6-0.8-1.2-1.6-1.8-2.4c-0.7-1-1.3-2-1.9-3.1c-0.5-0.9-1.1-1.7-1.6-2.6c-0.6-1.1-1.1-2.3-1.6-3.4
	c-0.4-0.9-0.9-1.7-1.3-2.6c-0.5-1.2-0.9-2.4-1.3-3.6c-0.3-0.9-0.7-1.8-1-2.7c-0.4-1.3-0.7-2.6-1-3.8c-0.2-0.9-0.5-1.8-0.7-2.7
	c-0.3-1.5-0.5-3.1-0.7-4.7c-0.1-0.7-0.2-1.4-0.3-2.1c-0.2-2.3-0.4-4.7-0.4-7v-17.1H42.7v17.1c0,37.7,30.6,68.3,68.3,68.3h375.5
	c-1.1,0-2.2-0.1-3.3-0.2s-2.2-0.1-3.3-0.2C478.5,503,477.4,502.8,476.2,502.6z"/>
<g>
	<path class="st1" d="M483.1,503.3c-1.1-0.1-2.2-0.1-3.3-0.2C480.9,503.2,482,503.2,483.1,503.3z"/>
	<path class="st1" d="M473,502.1c1,0.2,2.1,0.3,3.2,0.5C475.1,502.5,474,502.3,473,502.1z"/>
	<path class="st1" d="M421.2,455.6c0.3,0.9,0.7,1.8,1,2.7C421.9,457.3,421.5,456.5,421.2,455.6z"/>
	<path class="st1" d="M419.5,449c0.2,0.9,0.5,1.8,0.7,2.7C420,450.8,419.7,449.9,419.5,449z"/>
	<path class="st1" d="M426.4,467.8c0.5,0.9,1,1.7,1.6,2.6C427.5,469.5,426.9,468.7,426.4,467.8z"/>
	<path class="st1" d="M418.5,442.2c0.1,0.7,0.2,1.4,0.3,2.1C418.7,443.6,418.6,442.9,418.5,442.2z"/>
	<path class="st1" d="M429.9,473.5c0.6,0.9,1.2,1.6,1.8,2.4C431.1,475.1,430.4,474.3,429.9,473.5z"/>
	<path class="st1" d="M448.4,491.9c0.9,0.6,1.8,1.1,2.7,1.6C450.2,493,449.3,492.5,448.4,491.9z"/>
	<path class="st1" d="M443.1,488c0.8,0.6,1.6,1.2,2.5,1.8C444.8,489.2,443.9,488.7,443.1,488z"/>
	<path class="st1" d="M433.8,478.7c0.6,0.8,1.4,1.5,2,2.2C435.2,480.2,434.5,479.5,433.8,478.7z"/>
	<path class="st1" d="M460.1,498.2c1,0.4,2,0.7,3,1.1C462,498.9,461,498.6,460.1,498.2z"/>
	<path class="st1" d="M466.4,500.5c1,0.3,2.1,0.5,3.1,0.8C468.5,501,467.4,500.8,466.4,500.5z"/>
	<path class="st1" d="M423.5,461.9c0.4,0.9,0.9,1.7,1.3,2.6C424.4,463.6,423.9,462.8,423.5,461.9z"/>
	<path class="st1" d="M454.1,495.3c0.9,0.5,1.9,0.9,2.8,1.4C456,496.2,455,495.8,454.1,495.3z"/>
</g>
<polygon class="st2" points="273.1,162.1 59.7,162.1 59.7,230.4 273.1,230.4 264.5,196.3 "/>
<polygon class="st3" points="273.1,230.4 281.6,230.4 315.7,196.3 281.6,162.1 273.1,162.1 264.5,196.3 "/>
<path class="st3" d="M42.7,230.4h17.1v-68.3H42.7c-18.9,0-34.1,15.3-34.1,34.1S23.8,230.4,42.7,230.4z"/>
<path class="st2" d="M196.3,358.4h256v-256L196.3,358.4z M401.1,307.2h-81.2l81.2-81.2V307.2z"/>
<polygon class="st0" points="401.1,226 319.9,307.2 401.1,307.2 "/>
<path class="st4" d="M503.5,0h-384c-4.7,0-8.5,3.8-8.5,8.5v128H128V17.1h366.9v469.3c0.1,4.5-3.4,8.2-7.9,8.5
	c-0.7,0-1.5-0.1-2.2-0.1c-1.5,0-3-0.1-4.5-0.2c-0.1,0-0.2,0-0.4-0.1c-27.9-3-49.9-25-53-52.9c0-0.1,0-0.2-0.1-0.4
	c-0.2-2-0.3-4.1-0.3-6.1v-17.1c0-4.7-3.8-8.5-8.5-8.5H128V256h-17.1v153.6H42.7c-4.7,0-8.5,3.8-8.5,8.5v17.1
	c0.1,42.4,34.4,76.7,76.8,76.8h376.3c13.9-0.4,24.9-11.8,24.7-25.6V8.5C512,3.8,508.2,0,503.5,0z M110.9,494.9
	c-33,0-59.7-26.8-59.7-59.7v-8.5h358.4v8.5c0,2.8,0.2,5.6,0.5,8.4c0.1,0.7,0.2,1.5,0.3,2.2c0.3,2.1,0.6,4.1,1.1,6.1
	c0.2,0.7,0.4,1.4,0.5,2.1c0.5,2.1,1.1,4.1,1.8,6.1c0.2,0.6,0.4,1.1,0.6,1.7c0.8,2.1,1.7,4.2,2.6,6.2c0.2,0.4,0.4,0.9,0.6,1.2
	c1.1,2.2,2.2,4.3,3.5,6.3c0.2,0.3,0.3,0.6,0.5,0.9c1.4,2.2,2.9,4.3,4.5,6.3l0.3,0.4c1.9,2.3,3.9,4.6,6,6.7c1.8,1.8,3.7,3.5,5.7,5.1
	L110.9,494.9z"/>
<path class="st4" d="M281.6,238.9c2.3,0,4.4-0.9,6-2.5l34.1-34.1c3.3-3.3,3.3-8.7,0-12.1l-34.1-34.1c-1.6-1.6-3.8-2.5-6-2.5H42.7
	C19.1,153.6,0,172.7,0,196.3s19.1,42.7,42.7,42.7L281.6,238.9L281.6,238.9z M257.9,187.7H85.3v17.1h172.5l4.3,17.1H68.3v-51.2h193.9
	L257.9,187.7z M303.7,196.3l-24.3,24.3l-6.1-24.3l6.1-24.3L303.7,196.3z M17.1,196.3c0-14.1,11.5-25.6,25.6-25.6h8.5v51.2h-8.5
	C28.5,221.9,17.1,210.4,17.1,196.3z"/>
<path class="st4" d="M196.3,366.9h256c4.7,0,8.5-3.8,8.5-8.5v-256c0-4.7-3.8-8.5-8.5-8.5c-2.3,0-4.4,0.9-6,2.5l-256,256
	c-3.3,3.3-3.3,8.7,0,12.1C191.8,366,194,366.9,196.3,366.9z M443.7,123v22.1h-17.1v17.1h17.1v17.1h-17.1v17.1h17.1v17.1h-17.1v17.1
	h17.1v17.1h-17.1v17.1h17.1v17.1h-17.1v17.1h17.1v17.1h-17.1v17.1h17.1v17.1h-17.1v-17.1h-17.1v17.1h-17.1v-17.1h-17.1v17.1h-17.1
	v-17.1h-17.1v17.1h-17.1v-17.1h-17.1v17.1h-17.1v-17.1h-17.1v17.1H256v-17.1h-17.1v17.1h-22.1L443.7,123z"/>
<path class="st4" d="M319.9,315.7h81.2c4.7,0,8.5-3.8,8.5-8.5V226c0-4.7-3.8-8.5-8.5-8.5c-2.3,0-4.4,0.9-6,2.5l-81.2,81.2
	c-3.3,3.3-3.3,8.7,0,12.1C315.4,314.8,317.6,315.7,319.9,315.7z M392.5,246.6v52.1h-52.1L392.5,246.6z"/>
<rect x="221.9" y="51.2" class="st4" width="170.7" height="17.1"/>
<rect x="196.3" y="85.3" class="st4" width="221.9" height="17.1"/>
<rect x="145.1" y="264.5" class="st4" width="51.2" height="17.1"/>
<rect x="145.1" y="298.7" class="st4" width="34.1" height="17.1"/>
</svg>
